<?xml version="1.0" encoding="utf-8"?>
<!-- Generator: Adobe Illustrator 28.0.0, SVG Export Plug-In . SVG Version: 6.00 Build 0)  -->
<svg version="1.1" id="Слой_1" xmlns="http://www.w3.org/2000/svg" xmlns:xlink="http://www.w3.org/1999/xlink" x="0px" y="0px"
	 viewBox="0 0 187 208" style="enable-background:new 0 0 187 208;" xml:space="preserve">
<style type="text/css">
	.st0{fill-rule:evenodd;clip-rule:evenodd;fill:#010202;}
	.st1{fill:#010202;}
</style>
<path class="st0" d="M79.98,76c0-1.1,0.9-2,2-2h1.5c0.28,0,0.5,0.22,0.5,0.5s0.22,0.5,0.5,0.5h19c0.28,0,0.5-0.22,0.5-0.5
	s0.22-0.5,0.5-0.5h1.5c1.1,0,2,0.9,2,2v12c0,2.21-1.79,4-4,4c-1.1,0-2,0.9-2,2v3c0,0.55-0.45,1-1,1s-1,0.45-1,1v1c0,1.1-0.9,2-2,2
	h-8c-1.1,0-2-0.9-2-2v-1c0-0.55-0.45-1-1-1s-1-0.45-1-1v-3c0-1.1-0.9-2-2-2c-2.21,0-4-1.79-4-4V76z"/>
<path class="st0" d="M67.98,80c0-2.21,1.79-4,4-4h3c2.21,0,4,1.79,4,4v3.5c0,0.28-0.22,0.5-0.5,0.5s-0.5,0.22-0.5,0.5V86
	c0,1.1-0.9,2-2,2h-1c-0.55,0-1,0.45-1,1s0.45,1,1,1h2c0.55,0,1,0.45,1,1s0.45,1,1,1s1,0.45,1,1s-0.45,1-1,1h-1h-8c-1.1,0-2-0.9-2-2
	v-1c0-0.55,0.45-1,1-1c0.55,0,1-0.45,1-1v-1v-3c0-0.55-0.45-1-1-1c-0.55,0-1-0.45-1-1V80z"/>
<path class="st0" d="M75.98,98c0-1.1-0.9-2-2-2h-6c-1.1,0-2,0.9-2,2v1c0,0.55-0.45,1-1,1s-1,0.45-1,1v11c0,1.1,0.9,2,2,2s2-0.9,2-2
	v-5c0-0.55,0.45-1,1-1c0.55,0,1-0.45,1-1s0.45-1,1-1c0.55,0,1,0.45,1,1s0.45,1,1,1s1,0.45,1,1v5c0,1.1,0.9,2,2,2s2-0.9,2-2v-11
	c0-0.55-0.45-1-1-1s-1-0.45-1-1V98z"/>
<path class="st0" d="M79.98,98h-1c-0.55,0-1,0.45-1,1s0.45,1,1,1s1,0.45,1,1v1v2c0,1.1,0.9,2,2,2h24c1.1,0,2-0.9,2-2v-2v-1
	c0-0.55,0.45-1,1-1s1-0.45,1-1s-0.45-1-1-1h-5c-1.1,0-2,0.9-2,2v1c0,0.55-0.45,1-1,1s-1,0.45-1,1s-0.45,1-1,1h-10
	c-0.55,0-1-0.45-1-1s-0.45-1-1-1s-1-0.45-1-1v-1c0-1.1-0.9-2-2-2H79.98z"/>
<path class="st0" d="M83.98,108h-3c-0.55,0-1,0.45-1,1s0.45,1,1,1h2c0.55,0,1,0.45,1,1s0.45,1,1,1s1-0.45,1-1v-1
	C85.98,108.9,85.08,108,83.98,108z"/>
<path class="st0" d="M71.98,113c0-0.55-0.45-1-1-1c-0.55,0-1,0.45-1,1v9c0,1.1,0.9,2,2,2h8c2.21,0,4-1.79,4-4v-4v-2c0-1.1-0.9-2-2-2
	h-1c-0.55,0-1,0.45-1,1s-0.45,1-1,1s-1,0.45-1,1s-0.45,1-1,1h-3c-1.1,0-2-0.9-2-2V113z"/>
<path class="st0" d="M81.98,131c0-0.55-0.45-1-1-1h-13c-1.1,0-2,0.9-2,2s0.9,2,2,2h14h1c0.55,0,1-0.45,1-1s-0.45-1-1-1
	S81.98,131.55,81.98,131z"/>
<path class="st1" d="M72.98,126h10c0.55,0,1,0.45,1,1l0,0c0,0.55-0.45,1-1,1h-10c-0.55,0-1-0.45-1-1l0,0
	C71.98,126.45,72.42,126,72.98,126z"/>
<path class="st0" d="M85.98,128h-1c-0.55,0-1,0.45-1,1s0.45,1,1,1s1,0.45,1,1v2c0,0.55,0.45,1,1,1s1-0.45,1-1v-4c0-0.55-0.45-1-1-1
	H85.98z"/>
<path class="st0" d="M119.98,80c0-2.21-1.79-4-4-4h-3c-2.21,0-4,1.79-4,4v3.5c0,0.28,0.22,0.5,0.5,0.5s0.5,0.22,0.5,0.5V86
	c0,1.1,0.9,2,2,2h1c0.55,0,1,0.45,1,1s-0.45,1-1,1h-2c-0.55,0-1,0.45-1,1s-0.45,1-1,1s-1,0.45-1,1s0.45,1,1,1h1h8c1.1,0,2-0.9,2-2
	v-1c0-0.55-0.45-1-1-1s-1-0.45-1-1v-1v-3c0-0.55,0.45-1,1-1s1-0.45,1-1V80z"/>
<path class="st0" d="M111.98,98c0-1.1,0.9-2,2-2h6c1.1,0,2,0.9,2,2v1c0,0.55,0.45,1,1,1s1,0.45,1,1v11c0,1.1-0.9,2-2,2s-2-0.9-2-2
	v-5c0-0.55-0.45-1-1-1s-1-0.45-1-1s-0.45-1-1-1s-1,0.45-1,1s-0.45,1-1,1s-1,0.45-1,1v5c0,1.1-0.9,2-2,2s-2-0.9-2-2v-11
	c0-0.55,0.45-1,1-1s1-0.45,1-1V98z"/>
<path class="st0" d="M103.98,108h3c0.55,0,1,0.45,1,1s-0.45,1-1,1h-2c-0.55,0-1,0.45-1,1s-0.45,1-1,1s-1-0.45-1-1v-1
	C101.98,108.9,102.87,108,103.98,108z"/>
<path class="st0" d="M115.98,113c0-0.55,0.45-1,1-1s1,0.45,1,1v9c0,1.1-0.9,2-2,2h-8c-2.21,0-4-1.79-4-4v-4v-2c0-1.1,0.9-2,2-2h1
	c0.55,0,1,0.45,1,1s0.45,1,1,1s1,0.45,1,1s0.45,1,1,1h3c1.1,0,2-0.9,2-2V113z"/>
<path class="st0" d="M105.98,131c0-0.55,0.45-1,1-1h13c1.1,0,2,0.9,2,2s-0.9,2-2,2h-14h-1c-0.55,0-1-0.45-1-1s0.45-1,1-1
	S105.98,131.55,105.98,131z"/>
<path class="st1" d="M114.98,126h-10c-0.55,0-1,0.45-1,1l0,0c0,0.55,0.45,1,1,1h10c0.55,0,1-0.45,1-1l0,0
	C115.98,126.45,115.53,126,114.98,126z"/>
<path class="st0" d="M101.98,128h1c0.55,0,1,0.45,1,1s-0.45,1-1,1s-1,0.45-1,1v2c0,0.55-0.45,1-1,1s-1-0.45-1-1v-4
	c0-0.55,0.45-1,1-1H101.98z"/>
<path class="st0" d="M99.98,111c0-1.66-1.34-3-3-3h-6c-1.66,0-3,1.34-3,3v6c0,0.55,0.45,1,1,1s1,0.45,1,1s0.45,1,1,1h6
	c0.55,0,1-0.45,1-1s0.45-1,1-1s1-0.45,1-1V111z"/>
</svg>
