<svg width="120" height="97" viewBox="0 0 120 97" fill="none" xmlns="http://www.w3.org/2000/svg">
<g opacity="0.9">
<path d="M60 66C72.1503 66 82 56.1503 82 44C82 31.8497 72.1503 22 60 22C47.8497 22 38 31.8497 38 44C38 56.1503 47.8497 66 60 66Z" fill="url(#paint0_linear_1_3)"/>
<path d="M60 65C71.598 65 81 55.598 81 44C81 32.402 71.598 23 60 23C48.402 23 39 32.402 39 44C39 55.598 48.402 65 60 65Z" fill="url(#paint1_linear_1_3)"/>
<path fill-rule="evenodd" clip-rule="evenodd" d="M67.7274 21L59.5002 0L51.2729 21H67.7274ZM66.716 20.4208L59.5355 1.04241L52.1599 20.3473L66.716 20.4208Z" fill="url(#paint2_linear_1_3)"/>
<path fill-rule="evenodd" clip-rule="evenodd" d="M37.7495 54.6157L28.7178 75.2825L49.3846 66.2508L37.7495 54.6157ZM38.0773 55.7351L29.3444 74.6607L48.27 65.9279L38.0773 55.7351Z" fill="url(#paint3_linear_1_3)"/>
<path fill-rule="evenodd" clip-rule="evenodd" d="M70.6157 66.2557L91.2827 75.2875L82.251 54.6207L70.6157 66.2557ZM71.7539 66.0465L90.5439 74.5435L82.0469 55.7537L71.7539 66.0465Z" fill="url(#paint4_linear_1_3)"/>
<path opacity="0.9" fill-rule="evenodd" clip-rule="evenodd" d="M82.2461 33.3843L91.2773 12.7175L70.6108 21.7493L82.2461 33.3843ZM81.978 32.4786L90.6191 13.4058L71.5464 22.0466L81.978 32.4786Z" fill="url(#paint5_linear_1_3)"/>
<path fill-rule="evenodd" clip-rule="evenodd" d="M49.3843 21.7493L28.7173 12.7175L37.749 33.3843L49.3843 21.7493ZM48.3472 21.8932L29.3164 13.2614L37.9482 32.2917L48.3472 21.8932Z" fill="url(#paint6_linear_1_3)"/>
<path fill-rule="evenodd" clip-rule="evenodd" d="M83 51.7273L104 43.5L83 35.2727V51.7273ZM83.5 50.8612L103 43.5L83.5 36.1388V50.8612Z" fill="url(#paint7_linear_1_3)"/>
<path fill-rule="evenodd" clip-rule="evenodd" d="M37 35.2727L16 43.4999L37 51.7272V35.2727ZM36.5 36.1387L17 43.4999L36.5 50.8612V36.1387Z" fill="url(#paint8_linear_1_3)"/>
<path fill-rule="evenodd" clip-rule="evenodd" d="M51.2729 67L59.5002 88L67.7274 67H51.2729ZM52.139 67.5L59.5002 87L66.8614 67.5H52.139Z" fill="url(#paint9_linear_1_3)"/>
<path d="M62.8174 92.6568C67.2052 90.8742 82.2115 84.3086 87.9561 81.8575C85.5943 85.2805 81.8662 89.6743 76.9532 93.2344C83.8194 93.9643 96.192 91.9056 101.171 91.6053C86.9193 100.064 55.6493 95.5689 62.8174 92.6568Z" fill="url(#paint10_linear_1_3)"/>
<path opacity="0.99" d="M111.743 45.3498C114.589 48.8582 118.727 56.9208 112.512 61.1043L111.743 45.3498Z" fill="url(#paint11_linear_1_3)"/>
<path opacity="0.99" d="M98.662 71.3233C96.853 73.4588 86.8513 88.1681 83.1546 91.2493C92.777 91.507 108.524 86.1807 111.237 82.9774C106.145 83.8755 94.264 87.209 92.905 86.9532C91.547 86.6973 98.441 76.2339 98.662 71.3233Z" fill="url(#paint12_linear_1_3)"/>
<path d="M103.41 64.7892C102.168 67.6505 98.537 81.305 96.185 84.476C104.007 82.2349 116.099 79.5599 119.597 68.4569C115.413 72.0022 105.912 77.6414 105.458 76.3178C105.004 74.9942 104.206 68.0343 103.41 64.7892Z" fill="url(#paint13_linear_1_3)"/>
<path opacity="0.99" d="M105.89 55.3515C105.542 57.2014 107.103 70.957 107.199 73.5296C111.789 71.6124 121.064 64.4 119.266 57.4086C114.159 63.7186 111.218 64.4025 111.218 64.4025C111.218 64.4025 107.382 57.1925 105.89 55.3515Z" fill="url(#paint14_linear_1_3)"/>
<path d="M57.0835 92.6568C52.6957 90.8742 37.6894 84.3086 31.9448 81.8575C34.3066 85.2805 38.0347 89.6743 42.9476 93.2344C36.0815 93.9643 23.7091 91.9056 18.7297 91.6053C32.9816 100.064 64.2516 95.5689 57.0835 92.6568Z" fill="url(#paint15_linear_1_3)"/>
<path opacity="0.99" d="M8.15812 45.3498C5.31212 48.8582 1.17363 56.9208 7.38842 61.1043L8.15812 45.3498Z" fill="url(#paint16_linear_1_3)"/>
<path opacity="0.99" d="M21.2387 71.3233C23.0475 73.4588 33.0495 88.1681 36.7462 91.2493C27.1243 91.507 11.377 86.1807 8.66382 82.9774C13.7559 83.8755 25.6371 87.209 26.9955 86.9532C28.3538 86.6973 21.4603 76.2339 21.2387 71.3233Z" fill="url(#paint17_linear_1_3)"/>
<path d="M16.4907 64.7892C17.7329 67.6505 21.3641 81.305 23.7154 84.476C15.8938 82.2349 3.80151 79.5599 0.303741 68.4569C4.48791 72.0022 13.9884 77.6414 14.4424 76.3178C14.8964 74.9942 15.6953 68.0343 16.4907 64.7892Z" fill="url(#paint18_linear_1_3)"/>
<path opacity="0.99" d="M14.011 55.3515C14.3594 57.2014 12.7982 70.957 12.7023 73.5296C8.1123 71.6124 -1.16303 64.4 0.634793 57.4086C5.7414 63.7186 8.6831 64.4025 8.6831 64.4025C8.6831 64.4025 12.5185 57.1925 14.011 55.3515Z" fill="url(#paint19_linear_1_3)"/>
</g>
<defs>
<linearGradient id="paint0_linear_1_3" x1="60" y1="22" x2="60" y2="66" gradientUnits="userSpaceOnUse">
<stop stop-color="#FFEDC0"/>
<stop offset="1" stop-color="#433F36"/>
</linearGradient>
<linearGradient id="paint1_linear_1_3" x1="60" y1="23" x2="60" y2="65" gradientUnits="userSpaceOnUse">
<stop stop-color="#FFEDC0"/>
<stop offset="1" stop-color="#433F36"/>
</linearGradient>
<linearGradient id="paint2_linear_1_3" x1="59.5002" y1="0" x2="59.5002" y2="21" gradientUnits="userSpaceOnUse">
<stop stop-color="#FFEDC0"/>
<stop offset="1" stop-color="#433F36"/>
</linearGradient>
<linearGradient id="paint3_linear_1_3" x1="39.0512" y1="54.6157" x2="39.0512" y2="75.2825" gradientUnits="userSpaceOnUse">
<stop stop-color="#FFEDC0"/>
<stop offset="1" stop-color="#433F36"/>
</linearGradient>
<linearGradient id="paint4_linear_1_3" x1="80.9492" y1="54.6207" x2="80.9492" y2="75.2875" gradientUnits="userSpaceOnUse">
<stop stop-color="#FFEDC0"/>
<stop offset="1" stop-color="#433F36"/>
</linearGradient>
<linearGradient id="paint5_linear_1_3" x1="80.9441" y1="12.7175" x2="80.9441" y2="33.3843" gradientUnits="userSpaceOnUse">
<stop stop-color="#FFEDC0"/>
<stop offset="1" stop-color="#433F36"/>
</linearGradient>
<linearGradient id="paint6_linear_1_3" x1="39.0508" y1="12.7175" x2="39.0508" y2="33.3843" gradientUnits="userSpaceOnUse">
<stop stop-color="#FFEDC0"/>
<stop offset="1" stop-color="#433F36"/>
</linearGradient>
<linearGradient id="paint7_linear_1_3" x1="93.5" y1="35.2727" x2="93.5" y2="51.7273" gradientUnits="userSpaceOnUse">
<stop stop-color="#FFEDC0"/>
<stop offset="1" stop-color="#433F36"/>
</linearGradient>
<linearGradient id="paint8_linear_1_3" x1="26.5" y1="35.2727" x2="26.5" y2="51.7272" gradientUnits="userSpaceOnUse">
<stop stop-color="#FFEDC0"/>
<stop offset="1" stop-color="#433F36"/>
</linearGradient>
<linearGradient id="paint9_linear_1_3" x1="59.5002" y1="67" x2="59.5002" y2="88" gradientUnits="userSpaceOnUse">
<stop stop-color="#FFEDC0"/>
<stop offset="1" stop-color="#433F36"/>
</linearGradient>
<linearGradient id="paint10_linear_1_3" x1="81.4678" y1="81.8575" x2="81.4678" y2="96.4873" gradientUnits="userSpaceOnUse">
<stop stop-color="#FFEDC0"/>
<stop offset="1" stop-color="#433F36"/>
</linearGradient>
<linearGradient id="paint11_linear_1_3" x1="113.747" y1="45.3498" x2="113.747" y2="61.1043" gradientUnits="userSpaceOnUse">
<stop stop-color="#FFEDC0"/>
<stop offset="1" stop-color="#433F36"/>
</linearGradient>
<linearGradient id="paint12_linear_1_3" x1="97.1958" y1="71.3233" x2="97.1958" y2="91.2583" gradientUnits="userSpaceOnUse">
<stop stop-color="#FFEDC0"/>
<stop offset="1" stop-color="#433F36"/>
</linearGradient>
<linearGradient id="paint13_linear_1_3" x1="107.891" y1="64.7892" x2="107.891" y2="84.476" gradientUnits="userSpaceOnUse">
<stop stop-color="#FFEDC0"/>
<stop offset="1" stop-color="#433F36"/>
</linearGradient>
<linearGradient id="paint14_linear_1_3" x1="112.667" y1="55.3515" x2="112.667" y2="73.5296" gradientUnits="userSpaceOnUse">
<stop stop-color="#FFEDC0"/>
<stop offset="1" stop-color="#433F36"/>
</linearGradient>
<linearGradient id="paint15_linear_1_3" x1="38.433" y1="81.8575" x2="38.433" y2="96.4873" gradientUnits="userSpaceOnUse">
<stop stop-color="#FFEDC0"/>
<stop offset="1" stop-color="#433F36"/>
</linearGradient>
<linearGradient id="paint16_linear_1_3" x1="6.1538" y1="45.3498" x2="6.1538" y2="61.1043" gradientUnits="userSpaceOnUse">
<stop stop-color="#FFEDC0"/>
<stop offset="1" stop-color="#433F36"/>
</linearGradient>
<linearGradient id="paint17_linear_1_3" x1="22.705" y1="71.3233" x2="22.705" y2="91.2583" gradientUnits="userSpaceOnUse">
<stop stop-color="#FFEDC0"/>
<stop offset="1" stop-color="#433F36"/>
</linearGradient>
<linearGradient id="paint18_linear_1_3" x1="12.0096" y1="64.7892" x2="12.0096" y2="84.476" gradientUnits="userSpaceOnUse">
<stop stop-color="#FFEDC0"/>
<stop offset="1" stop-color="#433F36"/>
</linearGradient>
<linearGradient id="paint19_linear_1_3" x1="7.23411" y1="55.3515" x2="7.23411" y2="73.5296" gradientUnits="userSpaceOnUse">
<stop stop-color="#FFEDC0"/>
<stop offset="1" stop-color="#433F36"/>
</linearGradient>
</defs>
</svg>
