<svg width="203" height="214" viewBox="0 0 203 214" fill="none" xmlns="http://www.w3.org/2000/svg">
<path d="M57.281 171.5L29.781 205C13.6861 224.5 -2.81383 203 1.78101 193.5C6.61435 187.167 20.281 171.6 36.281 160C52.6861 146 67.9477 146.167 76.281 148.5C93.686 157 127.686 163.5 159.186 142C194.591 114.5 145.781 37.5 117.781 1C152.448 20.3333 215.581 75.4 190.781 141C169.981 188.2 123.114 191.333 102.281 187C96.6143 186.5 83.481 182.7 76.281 171.5C69.081 160.3 60.6143 166.833 57.281 171.5Z" fill="#F0C401" stroke="#E8C500"/>
<path fill-rule="evenodd" clip-rule="evenodd" d="M9 85.0331L53.2087 42L53.4868 42.2856L102.74 42.7002L79.0264 68.5229L79.061 68.5586L78.4255 69.1772L77.8154 69.8416L77.782 69.8037L75.0515 72.4617L202.658 197.212L187.005 213.223L59.0015 88.0848L34.8523 111.592L9 85.0331Z" fill="#F2C600"/>
</svg>
