<?xml version="1.0" encoding="iso-8859-1"?>
<!-- Generator: Adobe Illustrator 28.0.0, SVG Export Plug-In . SVG Version: 6.00 Build 0)  -->
<svg version="1.1" id="&#x421;&#x43B;&#x43E;&#x439;_1"
	 xmlns="http://www.w3.org/2000/svg" xmlns:xlink="http://www.w3.org/1999/xlink" x="0px" y="0px" viewBox="0 0 595.276 841.89"
	 style="enable-background:new 0 0 595.276 841.89;" xml:space="preserve">
<polygon style="fill:#5C5C5C;stroke:#5C5C5C;stroke-miterlimit:10;" points="322.266,477.583 350.606,477.583 350.6,469.922 
	318.181,469.924 316.649,472.86 "/>
<polygon style="fill:#5C5C5C;stroke:#5C5C5C;stroke-miterlimit:10;" points="272.734,477.583 278.351,472.86 276.819,469.924 
	244.4,469.922 244.394,477.583 "/>
<polygon style="fill:#5C5C5C;stroke:#000000;stroke-miterlimit:10;" points="276.83,404.537 276.83,395.117 264.05,394.352 
	264.053,404.537 "/>
<polygon style="fill:#5C5C5C;stroke:#000000;stroke-miterlimit:10;" points="318.181,404.562 330.95,404.537 330.947,394.352 
	318.17,395.117 "/>
<polygon style="fill:#4C4C4C;stroke:#4C4C4C;stroke-miterlimit:10;" points="286.011,472.86 278.351,472.86 276.819,469.924 
	276.819,457.158 282.436,453.328 287.242,458.553 286.011,460.732 "/>
<polygon style="fill:#4C4C4C;stroke:#4C4C4C;stroke-miterlimit:10;" points="308.989,472.86 316.649,472.86 318.181,469.924 
	318.181,457.158 312.564,453.328 307.758,458.553 308.989,460.732 "/>
<polygon style="fill:#BABABA;stroke:#B8B8B9;stroke-miterlimit:10;" points="259.074,404.562 276.819,404.562 281.66,408.617 
	281.66,414.017 286.01,418.367 308.99,418.367 313.34,414.017 313.34,408.617 318.181,404.562 335.926,404.562 335.93,409.007 
	330.95,414.017 330.947,427.541 264.053,427.541 264.05,414.017 259.07,409.007 "/>
<polygon style="fill:#5C5C5C;stroke:#5C5C5C;stroke-miterlimit:10;" points="277.585,455.941 286.585,450.392 286.011,427.541 
	264.053,427.541 264.053,436.732 273.245,436.732 276.819,441.583 276.819,453.328 "/>
<polygon style="fill:#5C5C5C;stroke:#5C5C5C;stroke-miterlimit:10;" points="308.989,427.541 308.989,450.775 318.181,457.158 
	318.181,441.583 321.755,436.732 330.947,436.732 330.947,427.541 "/>
<polygon style="fill:#5C5C5C;stroke:#5C5C5C;stroke-miterlimit:10;" points="249.372,436.732 240.819,436.732 240.83,428.057 
	245.42,423.437 249.38,427.397 "/>
<polygon style="fill:#5C5C5C;stroke:#5C5C5C;stroke-miterlimit:10;" points="345.628,436.732 354.181,436.732 354.17,428.057 
	349.58,423.437 345.62,427.397 "/>
<polygon style="fill:#BABABA;stroke:#BABABA;stroke-miterlimit:10;" points="276.819,469.924 276.819,441.583 273.245,436.732 
	240.819,436.732 240.83,469.922 "/>
<polygon style="fill:#BABABA;stroke:#BABABA;stroke-miterlimit:10;" points="318.181,469.924 354.17,469.922 354.181,436.732 
	321.755,436.732 318.181,441.583 "/>
<polygon style="fill:#CCCCCC;stroke:#CCCCCC;stroke-miterlimit:10;" points="287.242,458.553 282.436,453.328 286.011,450.775 
	286.011,427.541 308.989,427.541 308.989,450.775 312.564,453.328 307.758,458.553 305.67,454.86 289.33,454.86 "/>
<polygon style="fill:#BABABA;stroke:#B8B8B9;stroke-miterlimit:10;" points="276.83,490.862 286.011,490.86 286.011,472.86 
	278.351,472.86 272.734,477.583 276.819,481.413 "/>
<polygon style="fill:#BABABA;stroke:#B8B8B9;stroke-miterlimit:10;" points="308.989,490.86 318.181,490.86 318.181,481.413 
	322.266,477.583 316.649,472.86 308.989,472.86 "/>
<polygon style="fill:#CCCCCC;stroke:#CCCCCC;stroke-miterlimit:10;" points="276.83,490.862 276.819,481.413 271.777,477.583 
	236.48,477.572 232.4,481.682 232.4,490.862 "/>
<polygon style="fill:#CCCCCC;stroke:#CCCCCC;stroke-miterlimit:10;" points="318.17,490.862 362.6,490.862 362.6,481.682 
	358.52,477.572 322.266,477.583 318.181,481.413 "/>
<polyline style="fill:#CCCCCC;stroke:#CCCCCC;stroke-miterlimit:10;" points="330.947,394.352 318.17,395.117 318.181,404.562 
	313.34,408.617 313.34,414.017 308.99,418.367 286.01,418.367 281.66,414.017 281.66,408.617 276.83,404.537 276.83,395.117 
	264.05,394.352 264.05,378.782 264.05,402.257 259.07,402.257 259.07,409.007 264.05,414.017 264.05,441.827 259.7,446.687 
	249.38,446.687 249.38,427.397 245.42,423.437 240.83,428.057 240.83,446.687 232.4,446.687 226.64,440.927 226.64,413.747 
	232.34,408.047 232.34,400.757 235.31,397.757 235.31,390.497 239.45,386.327 239.45,377.507 235.55,373.577 235.55,358.367 
	239.21,354.677 260.72,354.677 264.26,351.137 278.87,351.137 282.32,354.617 312.68,354.617 316.13,351.137 330.74,351.137 
	334.28,354.677 355.79,354.677 359.45,358.367 359.45,373.577 355.55,377.507 355.55,386.327 359.69,390.497 359.69,397.757 
	362.66,400.757 362.66,408.047 368.36,413.747 368.36,440.927 362.6,446.687 354.17,446.687 354.17,428.057 349.58,423.437 
	345.62,427.397 345.62,446.687 335.3,446.687 330.95,441.827 330.95,414.017 335.93,409.007 335.93,402.257 330.95,402.257 
	330.95,380.348 "/>
<polyline style="fill:none;stroke:#000000;stroke-miterlimit:10;" points="240.83,446.702 240.83,469.922 244.4,469.922 
	244.4,477.572 236.48,477.572 232.4,481.682 232.4,490.862 276.83,490.862 286.01,490.862 287.81,490.862 "/>
<polyline style="fill:none;stroke:#000000;stroke-miterlimit:10;" points="297.5,454.86 289.33,454.86 286.011,460.732 
	286.011,490.86 "/>
<polyline style="fill:none;stroke:#000000;stroke-miterlimit:10;" points="244.394,477.583 272.734,477.583 276.819,481.413 
	276.819,490.86 "/>
<polyline style="fill:none;stroke:#000000;stroke-miterlimit:10;" points="244.394,469.924 276.819,469.924 276.819,441.583 
	273.245,436.732 265.074,436.732 "/>
<line style="fill:none;stroke:#000000;stroke-miterlimit:10;" x1="249.372" y1="436.732" x2="240.819" y2="436.732"/>
<line style="fill:none;stroke:#000000;stroke-miterlimit:10;" x1="264.053" y1="427.541" x2="297.5" y2="427.541"/>
<line style="fill:none;stroke:#000000;stroke-miterlimit:10;" x1="276.819" y1="404.562" x2="259.074" y2="404.562"/>
<line style="fill:none;stroke:#000000;stroke-miterlimit:10;" x1="282.436" y1="453.328" x2="276.819" y2="457.158"/>
<line style="fill:none;stroke:#000000;stroke-miterlimit:10;" x1="287.242" y1="458.553" x2="282.436" y2="453.328"/>
<line style="fill:none;stroke:#000000;stroke-miterlimit:10;" x1="286.011" y1="427.541" x2="286.011" y2="450.775"/>
<line style="fill:none;stroke:#000000;stroke-miterlimit:10;" x1="282.436" y1="453.328" x2="286.011" y2="450.775"/>
<line style="fill:none;stroke:#000000;stroke-miterlimit:10;" x1="272.734" y1="477.583" x2="278.351" y2="472.86"/>
<line style="fill:none;stroke:#000000;stroke-miterlimit:10;" x1="278.351" y1="472.86" x2="286.011" y2="472.86"/>
<line style="fill:none;stroke:#000000;stroke-miterlimit:10;" x1="276.819" y1="469.924" x2="278.351" y2="472.86"/>
<line style="fill:none;stroke:#000000;stroke-miterlimit:10;" x1="284.839" y1="451.611" x2="286.585" y2="450.392"/>
<line style="fill:none;stroke:#000000;stroke-miterlimit:10;" x1="286.011" y1="441.392" x2="286.011" y2="451.541"/>
<polyline style="fill:none;stroke:#000000;stroke-miterlimit:10;" points="354.17,446.702 354.17,469.922 350.6,469.922 
	350.6,477.572 358.52,477.572 362.6,481.682 362.6,490.862 318.17,490.862 308.99,490.862 307.19,490.862 "/>
<polyline style="fill:none;stroke:#000000;stroke-miterlimit:10;" points="297.5,454.86 305.67,454.86 308.989,460.732 
	308.989,490.86 "/>
<g>
	<polyline style="fill:none;stroke:#000000;stroke-miterlimit:10;" points="264.05,378.782 264.05,386.432 264.05,394.352 	"/>
	<polygon style="fill:none;stroke:#000000;stroke-miterlimit:10;" points="368.36,413.747 368.36,440.927 362.6,446.687 
		354.17,446.687 354.17,428.057 349.58,423.437 345.62,427.397 345.62,446.687 335.3,446.687 330.95,441.827 330.95,414.017 
		335.93,409.007 335.93,402.257 330.95,402.257 330.95,394.367 318.17,395.117 318.17,404.537 313.34,408.617 313.34,414.017 
		308.99,418.367 286.01,418.367 281.66,414.017 281.66,408.617 276.83,404.537 276.83,395.117 264.05,394.367 264.05,402.257 
		259.07,402.257 259.07,409.007 264.05,414.017 264.05,441.827 259.7,446.687 249.38,446.687 249.38,427.397 245.42,423.437 
		240.83,428.057 240.83,446.687 232.4,446.687 226.64,440.927 226.64,413.747 232.34,408.047 232.34,400.757 235.31,397.757 
		235.31,390.497 239.45,386.327 239.45,377.507 235.55,373.577 235.55,358.367 239.21,354.677 260.72,354.677 264.26,351.137 
		278.87,351.137 282.32,354.617 312.68,354.617 316.13,351.137 330.74,351.137 334.28,354.677 355.79,354.677 359.45,358.367 
		359.45,373.577 355.55,377.507 355.55,386.327 359.69,390.497 359.69,397.757 362.66,400.757 362.66,408.047 	"/>
	<polyline style="fill:none;stroke:#000000;stroke-miterlimit:10;" points="330.95,378.782 330.95,386.432 330.95,394.352 	"/>
</g>
<polyline style="fill:none;stroke:#000000;stroke-miterlimit:10;" points="350.606,477.583 322.266,477.583 318.181,481.413 
	318.181,490.86 "/>
<polyline style="fill:none;stroke:#000000;stroke-miterlimit:10;" points="350.606,469.924 318.181,469.924 318.181,441.583 
	321.755,436.732 329.926,436.732 "/>
<line style="fill:none;stroke:#000000;stroke-miterlimit:10;" x1="354.181" y1="436.732" x2="345.628" y2="436.732"/>
<line style="fill:none;stroke:#000000;stroke-miterlimit:10;" x1="330.947" y1="427.541" x2="297.5" y2="427.541"/>
<line style="fill:none;stroke:#000000;stroke-miterlimit:10;" x1="335.926" y1="404.562" x2="318.181" y2="404.562"/>
<line style="fill:none;stroke:#000000;stroke-miterlimit:10;" x1="318.181" y1="457.158" x2="312.564" y2="453.328"/>
<line style="fill:none;stroke:#000000;stroke-miterlimit:10;" x1="307.758" y1="458.553" x2="312.564" y2="453.328"/>
<line style="fill:none;stroke:#000000;stroke-miterlimit:10;" x1="308.989" y1="427.541" x2="308.989" y2="450.775"/>
<line style="fill:none;stroke:#000000;stroke-miterlimit:10;" x1="312.564" y1="453.328" x2="308.989" y2="450.775"/>
<line style="fill:none;stroke:#000000;stroke-miterlimit:10;" x1="322.266" y1="477.583" x2="316.649" y2="472.86"/>
<line style="fill:none;stroke:#000000;stroke-miterlimit:10;" x1="316.649" y1="472.86" x2="308.989" y2="472.86"/>
<line style="fill:none;stroke:#000000;stroke-miterlimit:10;" x1="318.181" y1="469.924" x2="316.649" y2="472.86"/>
<line style="fill:none;stroke:#000000;stroke-miterlimit:10;" x1="310.161" y1="451.611" x2="308.415" y2="450.392"/>
<line style="fill:none;stroke:#000000;stroke-miterlimit:10;" x1="308.989" y1="441.392" x2="308.989" y2="451.541"/>
</svg>
